<svg xmlns="http://www.w3.org/2000/svg" width="512" height="512" style="shape-rendering:geometricPrecision;text-rendering:geometricPrecision;image-rendering:optimizeQuality;fill-rule:evenodd;clip-rule:evenodd"><path fill="#1F628E" d="M511.5 258.5v16q-3.194 8.367-9.5 15a1781 1781 0 0 1-2 75q-7.773 52.825-48.5 86.5a1827 1827 0 0 1 17.5 36.5q1.659 12.181-10.5 14-5.715-.732-9.5-5l-17-34q-24.486 13.688-52.5 16.5-124 1-248 0-28.014-2.812-52.5-16.5A382 382 0 0 1 59.5 499q-14.617 6.631-18-9a514 514 0 0 1 18-39Q18.733 417.235 11 364.5a1781 1781 0 0 1-2-75q-6.725-6.972-9.5-16v-15q7.36-23.218 32-25-.25-94.002.5-188Q39.25 18.25 66.5 11a366 366 0 0 1 66 0q31.539 10.302 34 43.5 28.173 8.425 35.5 37a400 400 0 0 1 0 40q-2.25 4.25-6.5 6.5a1680 1680 0 0 1-82 0q-6.405-1.906-7.5-8.5a289 289 0 0 1 0-34q5.964-32.214 37.5-41-1.578-20.33-22-22.5a336 336 0 0 0-50 1Q58.407 36.593 54 49.5q-.75 91.999-.5 184 214.5-.25 429 .5 22.614 2.878 29 24.5m-359-184q21.526 1.275 27.5 22 .75 9.987.5 20h-53q-5.792-32.478 25-42m-121 181q223.5-.25 447 .5 13.742 2.235 9.5 15.5-2.456 3.465-6.5 4.5-225.5 1-451 0-13.478-4.207-6.5-16.5 3.383-2.998 7.5-4m0 43h448a815 815 0 0 1-1.5 62q-10.687 63.183-69.5 88.5a132.6 132.6 0 0 1-33 8q-120 1-240 0-70.905-8.546-97.5-74.5a131.4 131.4 0 0 1-5-22 815 815 0 0 1-1.5-62" style="opacity:.963"/></svg>