<svg xmlns="http://www.w3.org/2000/svg" xml:space="preserve" width="800" height="800" fill="#1F628E" viewBox="0 0 503.607 503.607"><path d="M444.852 193.049H182.187a28.9 28.9 0 0 0 2.468-11.751v-10.072c0-15.948-12.59-28.538-28.538-28.538H95.685c-15.948 0-28.538 12.59-28.538 28.538v10.072c0 4.209.884 8.179 2.468 11.751H50.361V67.148c0-9.233-7.554-16.787-16.787-16.787H16.787C7.554 50.361 0 57.915 0 67.148v369.311c0 9.233 7.554 16.787 16.787 16.787h16.787c9.233 0 16.787-7.554 16.787-16.787V327.344h402.885v109.115c0 9.233 7.554 16.787 16.787 16.787h16.787c9.233 0 16.787-7.554 16.787-16.787V251.803c0-32.734-26.02-58.754-58.755-58.754M83.934 181.298v-10.072c0-6.715 5.036-11.751 11.751-11.751h60.433c6.715 0 11.751 5.036 11.751 11.751v10.072c0 6.715-5.036 11.751-11.751 11.751H95.685c-6.714 0-11.751-5.036-11.751-11.751M16.787 67.148h16.787V193.05H16.787zm25.18 243.409c-5.036 0-8.393 3.357-8.393 8.393v117.508H16.787V209.836h100.721v100.721zM486.82 436.459h-16.787V318.951c0-5.036-3.357-8.393-8.393-8.393H134.295V209.836h310.557c23.502 0 41.967 18.466 41.967 41.967v184.656z"/></svg>