<svg xmlns="http://www.w3.org/2000/svg" width="512" height="512" style="shape-rendering:geometricPrecision;text-rendering:geometricPrecision;image-rendering:optimizeQuality;fill-rule:evenodd;clip-rule:evenodd"><path fill="#1F628E" d="M223.5 8.5q8.616-.225 10 8a336 336 0 0 0-15.5 31q-4.06 15.12 3 29a362 362 0 0 0 19 26q18.132 28.581 5 60-5.55 13.364-14.5 24.5-10.613 4.694-13-6.5a413 413 0 0 1 12.5-24q10.59-24.181-4-46a208.6 208.6 0 0 1-22-32q-7.73-22.89 2-45 6.357-14.535 17.5-25" style="opacity:.922"/><path fill="#1F628E" d="M141.5 41.5q15.93-2.143 10.5 13-10.831 9.653-10 24a36.2 36.2 0 0 0 4 7q38.457 32.443 4.5 69.5-10.273 4.5-13-6.5a347 347 0 0 1 11.5-20q3.771-10.337-3-19a242 242 0 0 1-17-20q-8.017-18.738 3-36a159 159 0 0 0 9.5-12M300.5 41.5q14.953-2.304 11.5 12a52 52 0 0 0-10 14q-4.21 10.818 4 19 35.938 30.822 5.5 67-7.128 6.195-13.5-1a16.24 16.24 0 0 1 0-8 113.6 113.6 0 0 0 10-15q4.014-10.886-3-20-11.803-10.795-19-25-3.553-12.873 2-25a88 88 0 0 1 12.5-18" style="opacity:.92"/><path fill="#1F628E" d="M58.5 215.5q117.002-.25 234 .5 6.38 5.13 2.5 12.5a6.98 6.98 0 0 1-3.5 2.5q-116.122.008-232 2a9.5 9.5 0 0 0-1.5 2.5 827 827 0 0 0 1 79 227 227 0 0 0 6 25A567 567 0 0 0 80.5 375q-.13 7.88-8 8.5-4.739-.983-7.5-5-19.32-32.963-23-71a1444 1444 0 0 1 0-76q4.128-12.38 16.5-16M511.5 286.5v51q-6.98 39.207-40 61.5-46.455 26.69-93 .5-25.557 29.816-61 46.5 69.625.014 139 2 5.72 36.045-28 51a55 55 0 0 1-7 2 341 341 0 0 1-50 1q-10.54-6.207-2-15l44-1q20.515-3.276 28-22.5a22584 22584 0 0 0-425 0q7.33 19.43 28 22.5l300 1q2.75.75 3.5 3.5 2.988 8.756-5.5 11.5l-149.5.5q-78.29.226-156.5-1.5-29.271-7.523-37-36.5v-14q1.225-2.466 4-3.5l136-1q-26.248-13.245-47.5-33.5-3.998-10.005 6.5-13 2.545.599 5 1.5 42.512 41.245 102 45a362.6 362.6 0 0 0 71-3q92.555-23.056 119.5-114.5a166 166 0 0 0 4-23q1-35 0-70-.75-2.75-3.5-3.5l-78-1q-9.37-6.771-1-15a1680 1680 0 0 1 82 0q14.334 3.888 17.5 18.5 53.055-17.374 85 28 6.419 11.536 9.5 24m-77-41q40.016-2.664 57.5 33a54 54 0 0 1 4 20 235.4 235.4 0 0 1-1 38q-10.093 47.593-57.5 58.5-26.723 4.827-50-9a283 283 0 0 1 9.5-13.5q43.216 19.721 73-17a65.3 65.3 0 0 0 8-20 164.5 164.5 0 0 0-.5-47.5q-11.197-28.61-42-25a608 608 0 0 1-19 5.5q-.249-8.514.5-17a182 182 0 0 1 17.5-6m3 33q17.573-2.094 24.5 14a144 144 0 0 1 0 41q-14.184 38.404-53.5 26.5-3.082-1.03-5-3.5 13.966-33.582 13.5-70a602 602 0 0 0 20.5-8" style="opacity:.933"/></svg>