<svg xmlns="http://www.w3.org/2000/svg" xml:space="preserve" fill="#1F628E" viewBox="0 0 32 32"><path d="M23 31.36h-3a.36.36 0 0 1-.36-.36V1A.36.36 0 0 1 20 .64h2A3.363 3.363 0 0 1 25.36 4v12a.36.36 0 0 1-.36.36h-1.64V31a.36.36 0 0 1-.36.36m-2.64-.72h2.279V16a.36.36 0 0 1 .36-.36h1.64V4a2.643 2.643 0 0 0-2.64-2.64h-1.64zm-8.36.72H9a.36.36 0 0 1-.36-.36V13.36H8A2.363 2.363 0 0 1 5.64 11V1h.72v10c0 .904.736 1.64 1.64 1.64h1a.36.36 0 0 1 .36.36v17.64h2.28V13a.36.36 0 0 1 .36-.36h1c.904 0 1.64-.736 1.64-1.64V1h.72v10A2.363 2.363 0 0 1 13 13.36h-.64V31a.36.36 0 0 1-.36.36M12.36 9h-.72V1h.72zm-3 0h-.72V1h.72z"/><path d="M0 0h32v32H0z" style="fill:none"/></svg>