<svg xmlns="http://www.w3.org/2000/svg" xml:space="preserve" fill="#1F628E" viewBox="0 0 512 512"><path d="M296.5 496.358v-25.212h.001c13.219-2.138 23.347-13.625 23.347-27.438 0-9.635-4.929-18.139-12.396-23.129 7.627-7.253 12.396-17.485 12.396-28.817 0-19.262-13.76-35.368-31.966-39.011v-36.878c0-19.752-16.07-35.822-35.823-35.822H68.314c-19.752 0-35.823 16.07-35.823 35.822v36.878C14.285 356.395.524 372.5.524 391.762c0 11.332 4.77 21.563 12.396 28.817C5.453 425.569.524 434.071.524 443.708c0 13.975 10.367 25.57 23.813 27.509v25.141H.353V512H511.31v-15.642zm-16.44-128.741c13.314 0 24.145 10.832 24.145 24.145 0 13.314-10.831 24.145-24.145 24.145s-24.145-10.832-24.145-24.145 10.831-24.145 24.145-24.145M48.134 315.874c0-11.128 9.053-20.181 20.182-20.181h183.743c11.128 0 20.182 9.053 20.182 20.181v36.878c-18.206 3.643-31.966 19.749-31.966 39.011 0 9.075 3.061 17.445 8.194 24.145H71.906c5.134-6.702 8.194-15.071 8.194-24.145 0-19.262-13.76-35.368-31.966-39.011zm-7.821 51.743c13.314 0 24.145 10.832 24.145 24.145 0 13.314-10.831 24.145-24.145 24.145s-24.146-10.832-24.146-24.145 10.832-24.145 24.146-24.145m240.546 128.741H39.979v-24.851h240.88zM28.325 455.866c-6.704 0-12.159-5.454-12.159-12.158s5.454-12.158 12.159-12.158h263.723c6.704 0 12.159 5.454 12.159 12.158s-5.454 12.158-12.159 12.158z"/><path d="M87.948 335.772h15.642v15.642H87.948zM216.208 335.772h15.642v15.642h-15.642zM32.681 383.739h15.642v15.642H32.681zM271.475 383.739h16.684v15.642h-16.684zM504.013 223.886V165.8h-87.59400000000001v58.085h-57.352v-59.128h-86.55v59.128h-32.243v39.616h271.374v-39.616h-7.635zm-23.985-42.444h8.342v40.668h-8.342zm-23.984 0h8.342v40.668h-8.342zm-23.983 0h8.342v40.668h-8.342zm-95.935-1.043h7.299v40.668h-7.299zm-23.984 0h8.342v40.668h-8.342zm-23.984 0h8.342v40.668h-8.342zm207.848 67.461H255.915v-8.333h240.091zM464.387 359.616v-23.844h-57.352v-32.326h-86.55v72.145l86.487-.194h.064l88.97-.216v8.314H328.01v15.642h183.636v-39.636zm-120.962.14h-7.299v-40.668h7.299zm25.027 0h-9.385v-40.668h9.385zm22.941 0h-7.299v-40.668h7.299zm57.352-.103-41.711.101v-8.342h41.711zM359.068 56.31h16.684v15.642h-16.684z"/><path d="M480.028 88.252v-23.6h-56.29V32.31h-111.54v55.94h-71.925v39.617h271.374V88.252zm-56.29-7.959h40.648v7.958h-40.648zm-95.898-8.342h23.928V56.31H327.84v-8.358h80.258v8.358h-24.004v15.642h24.004v16.301H327.84zm168.166 40.276H255.915v-8.334h240.091zM80.648 167.886h127.218v15.642H80.648zM135.915 0h15.642v32.326h-15.642zM151.556 48.779v-9.153h-15.642v9.285c-27.107 4.004-47.967 27.21-47.967 55.154v56.522h15.642v-8.342h16.684v-15.642h-16.684v-32.539c0-22.128 18.243-40.128 40.668-40.128s40.668 18.001 40.668 40.128v32.539H168.24v15.642h16.684v8.342h15.642v-56.522c0-28.3-21.399-51.728-49.01-55.286"/><path d="M128.616 136.603h32.326v15.642h-32.326zM135.915 191.87h16.684v15.642h-16.684z"/></svg>